<svg width="12" height="12" viewBox="0 0 12 12" fill="none" xmlns="http://www.w3.org/2000/svg">
<g clip-path="url(#clip0_623_21130)">
<path d="M4 6C2.3455 6 1 4.6545 1 3C1 1.3455 2.3455 0 4 0C5.6545 0 7 1.3455 7 3C7 4.6545 5.6545 6 4 6ZM10.5 9.5V8.5H11.955C11.7435 7.2465 10.7535 6.257 9.5 6.045V7.5H8.5V6.045C7.2465 6.2565 6.257 7.2465 6.045 8.5H7.5V9.5H6.045C6.2565 10.7535 7.2465 11.743 8.5 11.955V10.5H9.5V11.955C10.7535 11.7435 11.743 10.7535 11.955 9.5H10.5ZM5 9C5 8.2705 5.1985 7.589 5.5395 7H2.5C1.1195 7 0 8.1195 0 9.5V12H6.3605C5.528 11.267 5 10.1965 5 9Z" fill="#17ADD3"/>
</g>
<defs>
<clipPath id="clip0_623_21130">
<rect width="12" height="12" fill="white"/>
</clipPath>
</defs>
</svg>
